<svg width="341" height="72" viewBox="0 0 341 72" fill="none" xmlns="http://www.w3.org/2000/svg">
    <path d="M40.09 19.496V53H33.37V31.208L24.394 53H19.306L10.282 31.208V53H3.562V19.496H11.194L21.85 44.408L32.506 19.496H40.09ZM45.0059 39.608C45.0059 36.92 45.5339 34.536 46.5899 32.456C47.6779 30.376 49.1339 28.776 50.9579 27.656C52.8139 26.536 54.8779 25.976 57.1499 25.976C59.1339 25.976 60.8619 26.376 62.3339 27.176C63.8379 27.976 65.0379 28.984 65.9339 30.2V26.408H72.7019V53H65.9339V49.112C65.0699 50.36 63.8699 51.4 62.3339 52.232C60.8299 53.032 59.0859 53.432 57.1019 53.432C54.8619 53.432 52.8139 52.856 50.9579 51.704C49.1339 50.552 47.6779 48.936 46.5899 46.856C45.5339 44.744 45.0059 42.328 45.0059 39.608ZM65.9339 39.704C65.9339 38.072 65.6139 36.68 64.9739 35.528C64.3339 34.344 63.4699 33.448 62.3819 32.84C61.2939 32.2 60.1259 31.88 58.8779 31.88C57.6299 31.88 56.4779 32.184 55.4219 32.792C54.3659 33.4 53.5019 34.296 52.8299 35.48C52.1899 36.632 51.8699 38.008 51.8699 39.608C51.8699 41.208 52.1899 42.616 52.8299 43.832C53.5019 45.016 54.3659 45.928 55.4219 46.568C56.5099 47.208 57.6619 47.528 58.8779 47.528C60.1259 47.528 61.2939 47.224 62.3819 46.616C63.4699 45.976 64.3339 45.08 64.9739 43.928C65.6139 42.744 65.9339 41.336 65.9339 39.704ZM94.0011 26.024C97.1691 26.024 99.7291 27.032 101.681 29.048C103.633 31.032 104.609 33.816 104.609 37.4V53H97.8891V38.312C97.8891 36.2 97.3611 34.584 96.3051 33.464C95.2491 32.312 93.8091 31.736 91.9851 31.736C90.1291 31.736 88.6571 32.312 87.5691 33.464C86.5131 34.584 85.9851 36.2 85.9851 38.312V53H79.2651V26.408H85.9851V29.72C86.8811 28.568 88.0171 27.672 89.3931 27.032C90.8011 26.36 92.3371 26.024 94.0011 26.024ZM121.416 25.976C123.4 25.976 125.144 26.376 126.648 27.176C128.152 27.944 129.336 28.952 130.2 30.2V26.408H136.968V53.192C136.968 55.656 136.472 57.848 135.48 59.768C134.488 61.72 133 63.256 131.016 64.376C129.032 65.528 126.632 66.104 123.816 66.104C120.04 66.104 116.936 65.224 114.504 63.464C112.104 61.704 110.744 59.304 110.424 56.264H117.096C117.448 57.48 118.2 58.44 119.352 59.144C120.536 59.88 121.96 60.248 123.624 60.248C125.576 60.248 127.16 59.656 128.376 58.472C129.592 57.32 130.2 55.56 130.2 53.192V49.064C129.336 50.312 128.136 51.352 126.6 52.184C125.096 53.016 123.368 53.432 121.416 53.432C119.176 53.432 117.128 52.856 115.272 51.704C113.416 50.552 111.944 48.936 110.855 46.856C109.799 44.744 109.271 42.328 109.271 39.608C109.271 36.92 109.799 34.536 110.855 32.456C111.944 30.376 113.4 28.776 115.224 27.656C117.08 26.536 119.144 25.976 121.416 25.976ZM130.2 39.704C130.2 38.072 129.88 36.68 129.24 35.528C128.6 34.344 127.736 33.448 126.648 32.84C125.56 32.2 124.392 31.88 123.144 31.88C121.896 31.88 120.744 32.184 119.688 32.792C118.632 33.4 117.768 34.296 117.096 35.48C116.456 36.632 116.136 38.008 116.136 39.608C116.136 41.208 116.456 42.616 117.096 43.832C117.768 45.016 118.632 45.928 119.688 46.568C120.776 47.208 121.928 47.528 123.144 47.528C124.392 47.528 125.56 47.224 126.648 46.616C127.736 45.976 128.6 45.08 129.24 43.928C129.88 42.744 130.2 41.336 130.2 39.704ZM141.803 39.608C141.803 36.92 142.331 34.536 143.387 32.456C144.475 30.376 145.931 28.776 147.755 27.656C149.611 26.536 151.675 25.976 153.947 25.976C155.931 25.976 157.659 26.376 159.131 27.176C160.635 27.976 161.835 28.984 162.731 30.2V26.408H169.499V53H162.731V49.112C161.867 50.36 160.667 51.4 159.131 52.232C157.627 53.032 155.883 53.432 153.899 53.432C151.659 53.432 149.611 52.856 147.755 51.704C145.931 50.552 144.475 48.936 143.387 46.856C142.331 44.744 141.803 42.328 141.803 39.608ZM162.731 39.704C162.731 38.072 162.411 36.68 161.771 35.528C161.131 34.344 160.267 33.448 159.179 32.84C158.091 32.2 156.923 31.88 155.675 31.88C154.427 31.88 153.275 32.184 152.219 32.792C151.163 33.4 150.299 34.296 149.627 35.48C148.987 36.632 148.667 38.008 148.667 39.608C148.667 41.208 148.987 42.616 149.627 43.832C150.299 45.016 151.163 45.928 152.219 46.568C153.307 47.208 154.459 47.528 155.675 47.528C156.923 47.528 158.091 47.224 159.179 46.616C160.267 45.976 161.131 45.08 161.771 43.928C162.411 42.744 162.731 41.336 162.731 39.704Z" fill="#F35F5F"/>
    <path d="M194.191 53.336C191.727 53.336 189.519 52.936 187.567 52.136C185.615 51.336 184.047 50.152 182.863 48.584C181.711 47.016 181.103 45.128 181.039 42.92H189.775C189.903 44.168 190.335 45.128 191.071 45.8C191.807 46.44 192.767 46.76 193.951 46.76C195.167 46.76 196.127 46.488 196.831 45.944C197.535 45.368 197.887 44.584 197.887 43.592C197.887 42.76 197.599 42.072 197.023 41.528C196.479 40.984 195.791 40.536 194.959 40.184C194.159 39.832 193.007 39.432 191.503 38.984C189.327 38.312 187.551 37.64 186.175 36.968C184.799 36.296 183.615 35.304 182.623 33.992C181.631 32.68 181.135 30.968 181.135 28.856C181.135 25.72 182.271 23.272 184.543 21.512C186.815 19.72 189.775 18.824 193.423 18.824C197.135 18.824 200.127 19.72 202.399 21.512C204.671 23.272 205.887 25.736 206.047 28.904H197.167C197.103 27.816 196.703 26.968 195.967 26.36C195.231 25.72 194.287 25.4 193.135 25.4C192.143 25.4 191.343 25.672 190.735 26.216C190.127 26.728 189.823 27.48 189.823 28.472C189.823 29.56 190.335 30.408 191.359 31.016C192.383 31.624 193.983 32.28 196.159 32.984C198.335 33.72 200.095 34.424 201.439 35.096C202.815 35.768 203.999 36.744 204.991 38.024C205.983 39.304 206.479 40.952 206.479 42.968C206.479 44.888 205.983 46.632 204.991 48.2C204.031 49.768 202.623 51.016 200.767 51.944C198.911 52.872 196.719 53.336 194.191 53.336ZM236.779 39.176C236.779 39.944 236.731 40.744 236.635 41.576H218.059C218.187 43.24 218.715 44.52 219.643 45.416C220.603 46.28 221.771 46.712 223.147 46.712C225.195 46.712 226.619 45.848 227.419 44.12H236.155C235.707 45.88 234.891 47.464 233.707 48.872C232.555 50.28 231.099 51.384 229.339 52.184C227.579 52.984 225.611 53.384 223.435 53.384C220.811 53.384 218.475 52.824 216.427 51.704C214.379 50.584 212.779 48.984 211.627 46.904C210.475 44.824 209.899 42.392 209.899 39.608C209.899 36.824 210.459 34.392 211.579 32.312C212.731 30.232 214.331 28.632 216.379 27.512C218.427 26.392 220.779 25.832 223.435 25.832C226.027 25.832 228.331 26.376 230.347 27.464C232.363 28.552 233.931 30.104 235.051 32.12C236.203 34.136 236.779 36.488 236.779 39.176ZM228.379 37.016C228.379 35.608 227.899 34.488 226.939 33.656C225.979 32.824 224.779 32.408 223.339 32.408C221.963 32.408 220.795 32.808 219.835 33.608C218.907 34.408 218.331 35.544 218.107 37.016H228.379ZM257.429 25.928C260.565 25.928 263.061 26.952 264.917 29C266.805 31.016 267.749 33.8 267.749 37.352V53H259.589V38.456C259.589 36.664 259.125 35.272 258.197 34.28C257.269 33.288 256.021 32.792 254.453 32.792C252.885 32.792 251.637 33.288 250.709 34.28C249.781 35.272 249.317 36.664 249.317 38.456V53H241.109V26.216H249.317V29.768C250.149 28.584 251.269 27.656 252.677 26.984C254.085 26.28 255.669 25.928 257.429 25.928ZM284.349 53.384C282.013 53.384 279.933 52.984 278.109 52.184C276.285 51.384 274.845 50.296 273.789 48.92C272.733 47.512 272.141 45.944 272.013 44.216H280.125C280.221 45.144 280.653 45.896 281.421 46.472C282.189 47.048 283.133 47.336 284.253 47.336C285.277 47.336 286.061 47.144 286.605 46.76C287.181 46.344 287.469 45.816 287.469 45.176C287.469 44.408 287.069 43.848 286.269 43.496C285.469 43.112 284.173 42.696 282.381 42.248C280.461 41.8 278.861 41.336 277.581 40.856C276.301 40.344 275.197 39.56 274.269 38.504C273.341 37.416 272.877 35.96 272.877 34.136C272.877 32.6 273.293 31.208 274.125 29.96C274.989 28.68 276.237 27.672 277.869 26.936C279.533 26.2 281.501 25.832 283.773 25.832C287.133 25.832 289.773 26.664 291.693 28.328C293.645 29.992 294.765 32.2 295.053 34.952H287.469C287.341 34.024 286.925 33.288 286.221 32.744C285.549 32.2 284.653 31.928 283.533 31.928C282.573 31.928 281.837 32.12 281.325 32.504C280.813 32.856 280.557 33.352 280.557 33.992C280.557 34.76 280.957 35.336 281.757 35.72C282.589 36.104 283.869 36.488 285.597 36.872C287.581 37.384 289.197 37.896 290.445 38.408C291.693 38.888 292.781 39.688 293.709 40.808C294.669 41.896 295.165 43.368 295.197 45.224C295.197 46.792 294.749 48.2 293.853 49.448C292.989 50.664 291.725 51.624 290.061 52.328C288.429 53.032 286.525 53.384 284.349 53.384ZM325.466 39.176C325.466 39.944 325.418 40.744 325.322 41.576H306.746C306.874 43.24 307.402 44.52 308.33 45.416C309.29 46.28 310.458 46.712 311.834 46.712C313.882 46.712 315.306 45.848 316.106 44.12H324.842C324.394 45.88 323.578 47.464 322.394 48.872C321.242 50.28 319.786 51.384 318.026 52.184C316.266 52.984 314.298 53.384 312.122 53.384C309.498 53.384 307.162 52.824 305.114 51.704C303.066 50.584 301.466 48.984 300.314 46.904C299.162 44.824 298.586 42.392 298.586 39.608C298.586 36.824 299.146 34.392 300.266 32.312C301.418 30.232 303.018 28.632 305.066 27.512C307.114 26.392 309.466 25.832 312.122 25.832C314.714 25.832 317.018 26.376 319.034 27.464C321.05 28.552 322.618 30.104 323.738 32.12C324.89 34.136 325.466 36.488 325.466 39.176ZM317.066 37.016C317.066 35.608 316.586 34.488 315.626 33.656C314.666 32.824 313.466 32.408 312.026 32.408C310.65 32.408 309.482 32.808 308.522 33.608C307.594 34.408 307.018 35.544 306.794 37.016H317.066ZM333.924 23.432C332.484 23.432 331.3 23.016 330.372 22.184C329.476 21.32 329.028 20.264 329.028 19.016C329.028 17.736 329.476 16.68 330.372 15.848C331.3 14.984 332.484 14.552 333.924 14.552C335.332 14.552 336.484 14.984 337.38 15.848C338.308 16.68 338.772 17.736 338.772 19.016C338.772 20.264 338.308 21.32 337.38 22.184C336.484 23.016 335.332 23.432 333.924 23.432ZM338.004 26.216V53H329.796V26.216H338.004Z" fill="#F5F5F5"/>
</svg>
